<?xml version="1.0" encoding="UTF-8"?>
<svg width="670px" height="986px" viewBox="0 0 670 986" version="1.1" xmlns="http://www.w3.org/2000/svg" xmlns:xlink="http://www.w3.org/1999/xlink">
    <!-- Generator: Sketch 52.3 (67297) - http://www.bohemiancoding.com/sketch -->
    <title>stars</title>
    <desc>Created with Sketch.</desc>
    <g id="Page-1" stroke="none" stroke-width="1" fill="none" fill-rule="evenodd">
        <g id="Artboard" fill="#FFFFFF">
            <g id="stars" transform="translate(-47.000000, -29.000000)">
                <polygon id="Star" opacity="0.21968006" transform="translate(253.647897, 619.647897) rotate(-16.000000) translate(-253.647897, -619.647897) " points="253.647897 643.078736 221.025816 664.548341 231.363846 626.888425 200.864261 602.497454 239.875596 600.691951 253.647897 564.147897 267.420199 600.691951 306.431534 602.497454 275.931949 626.888425 286.269979 664.548341"></polygon>
                <polygon id="Star" opacity="0.21968006" transform="translate(59.457092, 72.562561) rotate(16.000000) translate(-59.457092, -72.562561) " points="59.457092 92.8270697 31.2433999 111.395376 40.1843987 78.8246384 13.8063792 57.729745 47.5459125 56.1682286 59.457092 24.5625607 71.3682715 56.1682286 105.107805 57.729745 78.7297853 78.8246384 87.6707841 111.395376"></polygon>
                <polygon id="Star-Copy" opacity="0.21968006" transform="translate(50.804208, 752.804208) rotate(-345.000000) translate(-50.804208, -752.804208) " points="50.8042083 766.52497 31.7011876 779.097261 37.7549889 757.044157 19.8948715 742.761156 42.7393472 741.703879 50.8042083 720.304208 58.8690694 741.703879 81.7135451 742.761156 63.8534277 757.044157 69.907229 779.097261"></polygon>
                <polygon id="Star-Copy" opacity="0.21968006" transform="translate(486.618622, 715.618622) rotate(-345.000000) translate(-486.618622, -715.618622) " points="486.618622 726.173054 471.92399 735.844047 476.580761 718.880121 462.842209 707.893197 480.414882 707.079907 486.618622 690.618622 492.822361 707.079907 510.395035 707.893197 496.656483 718.880121 501.313253 735.844047"></polygon>
                <polygon id="Star-Copy-2" opacity="0.21968006" transform="translate(695.618622, 607.618622) rotate(-381.000000) translate(-695.618622, -607.618622) " points="695.618622 618.173054 680.92399 627.844047 685.580761 610.880121 671.842209 599.893197 689.414882 599.079907 695.618622 582.618622 701.822361 599.079907 719.395035 599.893197 705.656483 610.880121 710.313253 627.844047"></polygon>
                <polygon id="Star-Copy" opacity="0.21968006" transform="translate(439.019310, 829.019310) rotate(-357.000000) translate(-439.019310, -829.019310) " points="439.01931 837.462855 427.263605 845.19965 430.989021 831.628509 419.998179 822.83897 434.056318 822.188338 439.01931 809.01931 443.982301 822.188338 458.04044 822.83897 447.049599 831.628509 450.775015 845.19965"></polygon>
                <polygon id="Star-Copy" opacity="0.21968006" transform="translate(295.588823, 789.588823) rotate(-368.000000) translate(-295.588823, -789.588823) " points="295.588823 798.032369 283.833118 805.769163 287.558535 792.198022 276.567693 783.408484 290.625832 782.757852 295.588823 769.588823 300.551815 782.757852 314.609954 783.408484 303.619112 792.198022 307.344528 805.769163"></polygon>
                <polygon id="Star-Copy" opacity="0.21968006" transform="translate(642.118015, 283.118015) rotate(-368.000000) translate(-642.118015, -283.118015) " points="642.118015 288.39523 634.770699 293.230727 637.099084 284.748764 630.229808 279.255302 639.016145 278.848657 642.118015 270.618015 645.219884 278.848657 654.006221 279.255302 647.136945 284.748764 649.46533 293.230727"></polygon>
                <polygon id="Star-Copy" opacity="0.21968006" transform="translate(143.379226, 893.379226) rotate(-381.000000) translate(-143.379226, -893.379226) " points="143.379226 899.711885 134.562447 905.514481 137.356509 895.336125 129.113378 888.743971 139.656982 888.255997 143.379226 878.379226 147.101469 888.255997 157.645073 888.743971 149.401942 895.336125 152.196004 905.514481"></polygon>
                <polygon id="Star-Copy" opacity="0.21968006" transform="translate(516.379226, 1000.379226) rotate(-381.000000) translate(-516.379226, -1000.379226) " points="516.379226 1006.71188 507.562447 1012.51448 510.356509 1002.33612 502.113378 995.743971 512.656982 995.255997 516.379226 985.379226 520.101469 995.255997 530.645073 995.743971 522.401942 1002.33612 525.196004 1012.51448"></polygon>
                <polygon id="Star-Copy" opacity="0.21968006" transform="translate(299.379226, 917.679366) rotate(-381.000000) translate(-299.379226, -917.679366) " points="299.379226 924.012025 290.562447 929.814621 293.356509 919.636265 285.113378 913.044111 295.656982 912.556137 299.379226 902.679366 303.101469 912.556137 313.645073 913.044111 305.401942 919.636265 308.196004 929.814621"></polygon>
                <path d="M83.3134328,550.5 C83.3134328,564.879034 92.8999,577.007833 106,580.7832 C103.250493,581.57559 100.346205,582 97.3432836,582 C80.0328661,582 66,567.89697 66,550.5 C66,533.10303 80.0328661,519 97.3432836,519 C100.346205,519 103.250493,519.42441 106,520.2168 C92.8999,523.992167 83.3134328,536.120966 83.3134328,550.5 Z" id="Path" fill-opacity="0.22" transform="translate(86.000000, 550.500000) rotate(-19.000000) translate(-86.000000, -550.500000) "></path>
                <path d="M561.282217,111.606841 C561.282217,154.743943 590.041618,191.130341 629.341918,202.45644 C621.093396,204.833613 612.380532,206.106841 603.371769,206.106841 C551.440516,206.106841 509.341918,163.79775 509.341918,111.606841 C509.341918,59.4159324 551.440516,17.1068413 603.371769,17.1068413 C612.380532,17.1068413 621.093396,18.3800701 629.341918,20.7572422 C590.041618,32.0833413 561.282217,68.4697394 561.282217,111.606841 Z" id="Path" fill-opacity="0.22" transform="translate(569.341918, 111.606841) rotate(-208.000000) translate(-569.341918, -111.606841) "></path>
                <path d="M526.820896,894 C526.820896,903.129545 532.812437,910.83037 541,913.227428 C539.281558,913.730534 537.466378,914 535.589552,914 C524.770541,914 516,905.045695 516,894 C516,882.954305 524.770541,874 535.589552,874 C537.466378,874 539.281558,874.269466 541,874.772572 C532.812437,877.16963 526.820896,884.870455 526.820896,894 Z" id="Path-Copy" fill-opacity="0.22"></path>
            </g>
        </g>
    </g>
</svg>